<svg xmlns="http://www.w3.org/2000/svg" viewBox="0 0 256 255">
  <path
    fill="#3776AB"
    d="M126.916 0c-12.967.058-25.308 1.17-36.07 3.125C59.16 9.364 56.14 20.263 56.14 40.385v28.14h71.635v9.385H29.49C9.564 77.91 0 90.52 0 110.77c0 20.31 8.93 39.13 29.49 39.13h27.93v-18.375c0-17.41 15.1-32.74 32.734-32.74h71.545c16.02 0 29.49-13.17 29.49-29.49V40.385c0-16.04-13.73-28.07-29.49-31.26C151.4 2.4 139.86-.05 126.916 0z"
  />
  <path
    fill="#FFD43B"
    d="M129.58 255c12.97-.06 25.31-1.17 36.07-3.13 31.69-6.24 34.71-17.14 34.71-37.26v-28.14h-71.63v-9.38h98.28c19.93 0 29.5-12.61 29.5-32.86 0-20.31-8.93-39.13-29.5-39.13h-27.93v18.38c0 17.41-15.1 32.74-32.74 32.74H94.8c-16.02 0-29.49 13.17-29.49 29.49v28.11c0 16.04 13.73 28.07 29.49 31.26 10.3 2.73 21.84 5.18 34.78 3.03z"
  />
</svg>
